Coordinates
version=1
nRows=17
nColumns=24
inDegrees=yes

Units are S.I. units (second, meters, Newtons, ...)
Angles are in degrees.

endheader
time	pelvis_tilt	pelvis_list	pelvis_rotation	pelvis_tx	pelvis_ty	pelvis_tz	hip_flexion_r	hip_adduction_r	hip_rotation_r	knee_angle_r	ankle_angle_r	subtalar_angle_r	mtp_angle_r	hip_flexion_l	hip_adduction_l	hip_rotation_l	knee_angle_l	ankle_angle_l	subtalar_angle_l	mtp_angle_l	lumbar_extension	lumbar_bending	lumbar_rotation
      5.68000000	    -12.29249340	      7.01209809	      3.92609133	     -0.21555278	     -0.03315081	      2.00494579	     18.12679994	    -12.83834144	    -11.12386633	    -61.13661478	    -25.26729850	     -8.12419139	     28.19138186	     28.79824642	     12.83946010	     -3.86452609	    -21.94567090	     -2.55603348	     -7.41703261	     18.75055696	      9.00387809	     -8.31342703	     -2.69849242
      5.69000000	    -12.13959105	      6.99056500	      3.77343638	     -0.20290208	     -0.03093817	      2.00463008	     19.87501676	    -12.60234000	    -10.14791267	    -62.47388642	    -23.06076119	     -9.36337751	     26.64543827	     27.39742160	     12.72982177	     -4.00922431	    -21.29314101	     -1.93819057	     -7.01168274	     19.38033009	      8.75845132	     -8.23490691	     -2.90055669
      5.70000000	    -12.00181705	      6.90434163	      3.71965048	     -0.19029330	     -0.02879512	      2.00400380	     21.55285345	    -12.35066171	     -9.32165523	    -63.43627988	    -21.07599552	     -9.96487101	     26.46527658	     25.94516160	     12.68104581	     -3.73258237	    -20.55277487	     -1.34032231	     -6.87403072	     19.29989478	      8.51936204	     -8.08188113	     -3.22704811
      5.71000000	    -11.92153626	      6.73640504	      3.63191571	     -0.17785113	     -0.02676851	      2.00347608	     23.29991038	    -11.95170573	     -8.54807561	    -64.14200554	    -19.11164726	    -10.34965742	     23.95636058	     24.56300982	     12.58198602	     -3.23835751	    -19.84759785	     -0.57004015	     -6.89683235	     17.18498844	      8.33825818	     -7.84465093	     -3.46724051
      5.72000000	    -11.77048848	      6.52785405	      3.67526429	     -0.16537733	     -0.02485251	      2.00267156	     24.82365385	    -11.60164442	     -8.02057924	    -64.45280313	    -17.39143140	    -10.39116235	     23.77725219	     23.07524630	     12.51290627	     -2.52604501	    -19.11785583	      0.23150724	     -6.95447594	     15.02697074	      8.06869839	     -7.56790897	     -3.87922270
      5.73000000	    -11.63333572	      6.30385469	      3.72784646	     -0.15290311	     -0.02310261	      2.00181681	     26.28586596	    -11.24730500	     -7.59685377	    -64.43031930	    -15.83882703	    -10.34233648	     24.27943890	     21.58890584	     12.43097009	     -1.79329616	    -18.29249367	      0.60943516	     -7.38647513	     14.10784190	      7.82593014	     -7.27570917	     -4.22904166
      5.74000000	    -11.42313915	      5.97874791	      3.88568975	     -0.14048907	     -0.02136745	      2.00081787	     27.51618891	    -10.83714942	     -7.39276510	    -64.01559112	    -14.37222982	    -10.15558373	     25.51750377	     20.07429248	     12.25116113	     -1.07872479	    -17.56811738	      1.13051785	     -7.61945359	     12.65195158	      7.48612640	     -6.88601500	     -4.75972992
      5.75000000	    -11.25808531	      5.59997501	      4.11071392	     -0.12813916	     -0.01986507	      1.99979727	     28.68810610	    -10.40922574	     -7.33918807	    -63.28605077	    -13.01285894	     -9.95165692	     27.14139367	     18.66899755	     11.98734221	     -0.47716720	    -16.93293580	      1.72165875	     -7.60979574	     11.66181490	      7.19413746	     -6.45992679	     -5.29915275
      5.76000000	    -11.22363509	      5.21679618	      4.36767313	     -0.11589943	     -0.01868931	      1.99882390	     29.93802535	     -9.99965463	     -7.35657714	    -62.33757064	    -11.59841963	     -9.62144709	     27.69326963	     17.45625381	     11.67942228	     -0.09438213	    -16.32881005	      2.21297653	     -7.44597531	     11.61824249	      7.03288918	     -6.05219652	     -5.80095636
      5.77000000	    -10.98042918	      4.73147480	      4.69013482	     -0.10369892	     -0.01726888	      1.99772847	     30.79253010	     -9.53163796	     -7.58730365	    -60.98069843	    -10.58254835	     -9.46629236	     28.62773428	     16.00023027	     11.26210553	      0.43226246	    -15.67350909	      2.61997413	     -7.35354924	     11.52427407	      6.64304863	     -5.52441828	     -6.36558508
      5.78000000	    -10.96295729	      4.30152016	      5.04761028	     -0.09162242	     -0.01640154	      1.99663273	     31.86408901	     -9.18302157	     -7.86102188	    -59.50290035	     -9.54536447	     -9.18167189	     28.89961131	     14.84764957	     10.88627153	      0.78660523	    -15.09551486	      3.09799133	     -7.06764317	     11.63232300	      6.48629483	     -5.07964149	     -6.89697290
      5.79000000	    -10.85351254	      3.82024683	      5.44190858	     -0.07956247	     -0.01554759	      1.99551139	     32.71661197	     -8.82164126	     -8.29527662	    -57.74243315	     -8.77157144	     -9.05780105	     28.86018069	     13.59145029	     10.44136943	      1.21412824	    -14.49278604	      3.55547780	     -6.80689606	     11.77053927	      6.23515842	     -4.57668408	     -7.45033969
      5.80000000	    -10.72989779	      3.36082406	      5.82819598	     -0.06750773	     -0.01488164	      1.99445624	     33.46983996	     -8.49277704	     -8.78129233	    -55.77965103	     -8.09018261	     -8.95270745	     28.40789697	     12.31597880	      9.99412066	      1.63860394	    -13.86773490	      3.99826692	     -6.57189839	     11.89100123	      5.97481382	     -4.09564891	     -7.96704694
      5.81000000	    -10.62627842	      2.97642275	      6.09692541	     -0.05542950	     -0.01448672	      1.99370337	     34.21441598	     -8.13974444	     -9.11478441	    -53.73707594	     -7.12256427	     -8.60839486	     25.41118771	     11.04264295	      9.57615878	      1.98206893	    -13.19569192	      4.43019109	     -6.39137400	     11.85068528	      5.74302191	     -3.69147569	     -8.31640954
      5.82000000	    -10.63490359	      2.58203198	      6.42809354	     -0.04338809	     -0.01441297	      1.99289432	     34.94770198	     -7.85851722	     -9.58892114	    -51.39787890	     -6.53584334	     -8.41146769	     24.93509080	      9.91816134	      9.15807628	      2.36362877	    -12.56370211	      4.87102020	     -6.21685931	     11.82324376	      5.63200375	     -3.29658480	     -8.73386238
      5.83000000	    -10.60195012	      2.28540496	      6.58656620	     -0.03129073	     -0.01451166	      1.99248344	     35.59530108	     -7.52197413	     -9.82306468	    -48.97675176	     -5.56031009	     -7.81022631	     22.07036824	      8.71981600	      8.78036054	      2.58282424	    -11.88986147	      5.39116723	     -6.00002012	     11.16873481	      5.47717913	     -2.99345158	     -8.94039333
      5.84000000	    -10.68864725	      1.97305039	      6.79268568	     -0.01924189	     -0.01489507	      1.99205235	     36.24288886	     -7.24827248	    -10.21553266	    -46.26725749	     -4.98522464	     -7.25595628	     21.82945726	      7.69541066	      8.39199242	      2.74491246	    -11.26563951	      5.81977515	     -5.76158628	     11.12891701	      5.44739409	     -2.69528874	     -9.21466798
